# Blender 4.0.2
# www.blender.org
mtllib house.mtl
o Cube
v -0.565220 -0.985910 1.000000
v -0.565220 0.144529 1.000000
v -1.000000 -1.000000 -1.000000
v -1.000000 1.000000 -1.000000
v 0.565220 -0.985910 1.000000
v 0.565220 0.144529 1.000000
v 1.000000 -1.000000 -1.000000
v 1.000000 1.000000 -1.000000
v 1.923451 1.083425 -1.923451
v 1.923451 1.083425 1.923451
v -1.923451 1.083425 -1.923451
v -1.923451 1.083425 1.923451
v 0.102342 2.327825 -1.923451
v 0.102342 2.327825 1.923451
v -0.102342 2.327825 -1.923451
v -0.102342 2.327825 1.923451
v -1.000000 -1.000000 1.000000
v -1.000000 1.000000 1.000000
v 1.000000 1.000000 1.000000
v 1.000000 -1.000000 1.000000
v -0.565220 -0.985910 0.787340
v -0.565220 0.144529 0.787340
v 0.565220 -0.985910 0.787340
v 0.565220 0.144529 0.787340
v -0.650642 -0.906481 0.323397
v -0.650642 0.383400 0.323397
v 0.639239 -0.906481 0.323397
v 0.639239 0.383400 0.323397
vn -1.0000 -0.0000 -0.0000
vn -0.0000 -0.0000 -1.0000
vn 1.0000 -0.0000 -0.0000
vn -0.0000 -1.0000 -0.0000
vn 0.0285 -0.9996 -0.0000
vn -0.0000 -0.9996 -0.0285
vn -0.0000 -0.9996 0.0285
vn -0.0285 -0.9996 -0.0000
vn -0.0000 1.0000 -0.0000
vn -0.0000 -0.0000 1.0000
vn -0.5642 0.8256 -0.0000
vn 0.5642 0.8256 -0.0000
vn -0.0000 0.9857 0.1687
vn 0.9835 -0.0000 -0.1811
vn -0.0000 -0.8891 -0.4578
vn -0.9875 -0.0000 -0.1576
vn -0.0285 0.9996 -0.0000
vn -0.0000 0.9996 0.0285
vn -0.0000 0.9996 -0.0285
vn 0.0285 0.9996 -0.0000
vt 0.625000 0.000000
vt 0.375000 0.250000
vt 0.375000 0.000000
vt 0.625000 0.250000
vt 0.375000 0.500000
vt 0.625000 0.500000
vt 0.375000 0.750000
vt 0.570652 0.804348
vt 0.429348 0.804348
vt 0.125000 0.750000
vt 0.125000 0.500000
vt 0.625000 0.750000
vt 0.625000 1.000000
vt 0.875000 0.500000
vt 0.570652 0.945652
vt 0.375000 1.000000
vt 0.429348 0.945652
vt 0.875000 0.750000
s 0
f 18/1/1 3/2/1 17/3/1
f 4/4/2 7/5/2 3/2/2
f 8/6/3 20/7/3 7/5/3
f 6/8/1 23/9/1 5/9/1
f 7/5/4 17/10/4 3/11/4
f 4/4/5 9/1/5 10/4/5
f 11/12/2 13/13/2 9/13/2
f 18/13/6 11/12/6 9/13/6
f 8/6/7 10/4/7 12/6/7
f 19/12/8 12/6/8 11/12/8
f 14/14/9 15/12/9 16/6/9
f 10/4/10 16/6/10 12/6/10
f 12/6/11 15/12/11 11/12/11
f 9/1/12 14/4/12 10/4/12
f 2/15/10 17/16/10 1/17/10
f 6/8/10 20/7/10 19/12/10
f 1/17/10 20/7/10 5/9/10
f 6/8/10 18/13/10 2/15/10
f 21/17/13 27/9/13 25/17/13
f 5/9/9 21/17/9 1/17/9
f 1/17/3 22/15/3 2/15/3
f 2/15/4 24/8/4 6/8/4
f 28/8/10 25/17/10 27/9/10
f 22/15/14 25/17/14 26/15/14
f 22/15/15 28/8/15 24/8/15
f 24/8/16 27/9/16 23/9/16
f 18/1/1 4/4/1 3/2/1
f 4/4/2 8/6/2 7/5/2
f 8/6/3 19/12/3 20/7/3
f 6/8/1 24/8/1 23/9/1
f 7/5/4 20/7/4 17/10/4
f 4/4/17 18/1/17 9/1/17
f 11/12/2 15/12/2 13/13/2
f 18/13/18 19/12/18 11/12/18
f 8/6/19 4/4/19 10/4/19
f 19/12/20 8/6/20 12/6/20
f 14/14/9 13/18/9 15/12/9
f 10/4/10 14/4/10 16/6/10
f 12/6/11 16/6/11 15/12/11
f 9/1/12 13/1/12 14/4/12
f 2/15/10 18/13/10 17/16/10
f 6/8/10 5/9/10 20/7/10
f 1/17/10 17/16/10 20/7/10
f 6/8/10 19/12/10 18/13/10
f 21/17/13 23/9/13 27/9/13
f 5/9/9 23/9/9 21/17/9
f 1/17/3 21/17/3 22/15/3
f 2/15/4 22/15/4 24/8/4
f 28/8/10 26/15/10 25/17/10
f 22/15/14 21/17/14 25/17/14
f 22/15/15 26/15/15 28/8/15
f 24/8/16 28/8/16 27/9/16
