# Blender 4.0.2
# www.blender.org
mtllib cube.mtl
o Cube
v -1.081187 0.010003 -0.013200
v -0.313045 0.543199 0.830108
v -0.527707 0.667792 -0.933245
v 0.240435 1.200988 -0.089937
v -0.251051 -0.921944 -0.180105
v 0.517091 -0.388748 0.663203
v 0.302430 -0.264155 -1.100150
v 1.070572 0.269040 -0.256842
vn -0.6593 0.7401 0.1326
vn 0.4396 0.5224 -0.7307
vn 0.6593 -0.7401 -0.1326
vn -0.4396 -0.5224 0.7307
vn -0.6100 -0.4235 -0.6697
vn 0.6100 0.4235 0.6697
vt 0.625000 0.000000
vt 0.375000 0.250000
vt 0.375000 0.000000
vt 0.625000 0.250000
vt 0.375000 0.500000
vt 0.625000 0.500000
vt 0.375000 0.750000
vt 0.625000 0.750000
vt 0.375000 1.000000
vt 0.125000 0.750000
vt 0.125000 0.500000
vt 0.875000 0.500000
vt 0.625000 1.000000
vt 0.875000 0.750000
s 0
f 2/1/1 3/2/1 1/3/1
f 4/4/2 7/5/2 3/2/2
f 8/6/3 5/7/3 7/5/3
f 6/8/4 1/9/4 5/7/4
f 7/5/5 1/10/5 3/11/5
f 4/12/6 6/8/6 8/6/6
f 2/1/1 4/4/1 3/2/1
f 4/4/2 8/6/2 7/5/2
f 8/6/3 6/8/3 5/7/3
f 6/8/4 2/13/4 1/9/4
f 7/5/5 5/7/5 1/10/5
f 4/12/6 2/14/6 6/8/6
