# Blender v3.0.1 OBJ File: ''
# www.blender.org
mtllib cube.mtl
<<<<<<< HEAD:cube.obj
o Cube
=======
o Cube_Cube.001
>>>>>>> b853bfe6a279fa153c8fae1a104bd26df7fa023a:model_samples/cube.obj
v -1.000000 -1.000000 1.000000
v -1.000000 1.000000 1.000000
v -1.000000 -1.000000 -1.000000
v -1.000000 1.000000 -1.000000
v 1.000000 -1.000000 1.000000
v 1.000000 1.000000 1.000000
v 1.000000 -1.000000 -1.000000
v 1.000000 1.000000 -1.000000
<<<<<<< HEAD:cube.obj
vn -1.0000 -0.0000 -0.0000
vn -0.0000 -0.0000 -1.0000
vn 1.0000 -0.0000 -0.0000
vn -0.0000 -0.0000 1.0000
vn -0.0000 -1.0000 -0.0000
vn -0.0000 1.0000 -0.0000
vt 0.715318 0.677516
vt 0.552194 0.515924
vt 0.714552 0.515158
vt 0.552960 0.678282
vt 0.389836 0.516690
vt 0.390602 0.679048
vt 0.227479 0.517456
vt 0.228244 0.679814
vt 0.065121 0.518222
vt 0.226713 0.355098
vt 0.389071 0.354332
vt 0.391368 0.841406
vt 0.065887 0.680580
vt 0.229010 0.842172
s 0
usemtl Material.002
=======
vt 0.625000 0.000000
vt 0.375000 0.250000
vt 0.375000 0.000000
vt 0.625000 0.250000
vt 0.375000 0.500000
vt 0.625000 0.500000
vt 0.375000 0.750000
vt 0.625000 0.750000
vt 0.375000 1.000000
vt 0.125000 0.750000
vt 0.125000 0.500000
vt 0.875000 0.500000
vt 0.625000 1.000000
vt 0.875000 0.750000
vn -1.0000 0.0000 0.0000
vn 0.0000 0.0000 -1.0000
vn 1.0000 0.0000 0.0000
vn 0.0000 0.0000 1.0000
vn 0.0000 -1.0000 0.0000
vn 0.0000 1.0000 0.0000
usemtl None
s off
>>>>>>> b853bfe6a279fa153c8fae1a104bd26df7fa023a:model_samples/cube.obj
f 2/1/1 3/2/1 1/3/1
f 4/4/2 7/5/2 3/2/2
f 8/6/3 5/7/3 7/5/3
f 6/8/4 1/9/4 5/7/4
f 7/5/5 1/10/5 3/11/5
f 4/12/6 6/8/6 8/6/6
f 2/1/1 4/4/1 3/2/1
f 4/4/2 8/6/2 7/5/2
f 8/6/3 6/8/3 5/7/3
f 6/8/4 2/13/4 1/9/4
f 7/5/5 5/7/5 1/10/5
f 4/12/6 2/14/6 6/8/6
